<svg width="32" height="32" viewBox="0 0 32 32" fill="none" xmlns="http://www.w3.org/2000/svg">
  <rect width="32" height="32" rx="6" fill="#3B82F6"/>
  <path d="M8 12H24V26C24 26.5523 23.5523 27 23 27H9C8.44772 27 8 26.5523 8 26V12Z" fill="white"/>
  <rect x="11" y="15" width="10" height="2" fill="#3B82F6"/>
  <rect x="11" y="19" width="6" height="2" fill="#3B82F6"/>
  <path d="M16 5C15.4477 5 15 5.44772 15 6V8H13C12.4477 8 12 8.44772 12 9C12 9.55228 12.4477 10 13 10H19C19.5523 10 20 9.55228 20 9C20 8.44772 19.5523 8 19 8H17V6C17 5.44772 16.5523 5 16 5Z" fill="white"/>
  <circle cx="19" cy="12" r="2" fill="#EF4444"/>
</svg>